<svg width="162" height="25" viewBox="0 0 162 25" fill="none" xmlns="http://www.w3.org/2000/svg">
<path fill-rule="evenodd" clip-rule="evenodd" d="M45.5349 24.4073H50.9209L53.0743 13.6865C53.7126 10.5099 58.7726 9.88881 58.0384 13.5498L55.8631 24.4073H61.2492L63.0682 15.3133C63.5559 12.8774 64.449 11.0968 66.5393 11.0968C68.9775 11.0968 68.3392 13.6922 68.0159 15.3133L66.1914 24.4073H71.5774L74.0622 11.9743C75.2621 5.96858 66.2297 5.13952 63.3696 9.74351C62.545 5.37884 56.0248 6.33326 53.7071 9.51274H53.6468L54.0879 7.30477H48.9567L45.5349 24.4073Z" fill="#F44237"/>
<path fill-rule="evenodd" clip-rule="evenodd" d="M99.1694 17.2564C99.1694 14.9487 100.309 10.9288 103.224 10.9288C105.251 10.9288 105.95 12.4445 105.95 14.5869C105.95 17.2222 104.873 20.7806 101.799 20.7806C99.8982 20.7835 99.1694 19.2023 99.1694 17.2564ZM93.7834 17.4558C93.7834 22.4986 97.1093 24.9031 101.673 24.9031C107.629 24.9031 111.336 20.4558 111.336 14.359C111.336 9.45015 108.073 6.81482 103.575 6.81482C97.6161 6.81197 93.7834 11.3932 93.7834 17.4558Z" fill="#F44237"/>
<path fill-rule="evenodd" clip-rule="evenodd" d="M87.3044 14.3248C87.3044 16.7949 86.0359 20.6182 83.0279 20.6182C81.2526 20.6182 80.3349 19.2991 80.3349 17.5214C80.3349 14.8205 81.3814 11.0969 84.6114 11.0969C86.4167 11.094 87.3044 12.3818 87.3044 14.3248ZM73.5544 24.4074H78.6884L79.1705 22.0028H79.2336C80.0883 24.1111 81.5403 24.9031 84.0443 24.9031C89.6522 24.9031 92.6931 19.4017 92.6931 13.9972C92.6931 10.1738 90.8877 6.81481 86.8962 6.81481C84.9949 6.81481 83.2525 7.53846 82.08 9.08832H82.017L83.8251 0H78.4391L73.5544 24.4074Z" fill="#F44237"/>
<path fill-rule="evenodd" clip-rule="evenodd" d="M33.8231 19.661C33.8231 16.3647 38.7023 17.7493 40.0639 16.5641H40.0967C39.9077 18.114 39.2721 21.4416 36.0093 21.4416C34.9326 21.4416 33.8231 21.0143 33.8231 19.661ZM35.6915 12.5784C35.8833 9.62963 41.0309 9.85471 40.9515 12.0855C40.8693 14.3789 38.4174 14.1937 36.5791 14.2935C32.3656 14.6239 28.5138 15.5128 28.4371 20.0912C28.3302 26.2992 37.1599 25.886 38.7653 22.7607H38.8283L38.4968 24.4074H43.5924L46.0909 11.9259C46.8005 8.38462 43.2007 6.81482 38.6365 6.81482C34.6121 6.81482 31.4451 8.13391 30.5877 12.5812H35.6915V12.5784Z" fill="#F44237"/>
<path fill-rule="evenodd" clip-rule="evenodd" d="M0 24.4074H5.38601L7.53932 13.6866C8.17764 10.51 13.2376 9.88892 12.5034 13.5499L10.3282 24.4074H15.717L17.536 15.3134C18.0237 12.8775 18.9168 11.0969 21.0071 11.0969C23.4453 11.0969 22.807 13.6923 22.4837 15.3134L20.6592 24.4074H26.0452L28.53 11.9744C29.7299 5.96869 20.6975 5.13963 17.8374 9.74362C17.0128 5.38179 10.4926 6.33336 8.1749 9.51285H8.11463L8.5557 7.30487H3.42173L0 24.4074Z" fill="#F44237"/>
<path d="M109.745 24.7863H112.235L112.74 22.2963H110.249L109.745 24.7863Z" fill="black"/>
<path d="M121.481 20.1168C121.468 18.1509 120.092 17.2307 118.312 17.2307C115.753 17.2307 114.109 19.1965 114.109 21.8005C114.109 23.9657 115.537 24.9971 117.498 24.9971C119.361 24.9971 120.764 24.0769 121.186 21.9828H118.942C118.764 22.7321 118.331 23.2279 117.594 23.2279C116.819 23.2279 116.424 22.6039 116.424 21.5441C116.424 20.4273 116.846 18.9401 118.208 18.9971C118.534 19.0113 118.78 19.0968 118.955 19.2791C119.147 19.4786 119.254 19.7606 119.24 20.1139H121.481V20.1168Z" fill="black"/>
<path d="M124.116 21.715C124.116 20.7236 124.607 18.9999 125.859 18.9999C126.73 18.9999 127.029 19.6495 127.029 20.5697C127.029 21.7008 126.566 23.2307 125.245 23.2307C124.429 23.2307 124.116 22.5498 124.116 21.715ZM121.804 21.8005C121.804 23.9657 123.231 24.9971 125.193 24.9971C127.752 24.9971 129.343 23.0883 129.343 20.47C129.343 18.3618 127.941 17.2307 126.009 17.2307C123.451 17.2307 121.804 19.1994 121.804 21.8005Z" fill="black"/>
<path d="M129.746 24.7863H132.059L132.916 20.5841C133.119 19.6069 133.527 19.0712 134.371 19.0712C134.861 19.0712 135.105 19.4245 135.105 19.849C135.105 20.1738 135.023 20.641 134.941 20.9943L134.182 24.7863H136.494L137.283 20.8804C137.486 19.8348 137.883 19.0684 138.779 19.0684C139.228 19.0684 139.554 19.3077 139.554 19.8462C139.554 20.171 139.472 20.6097 139.403 20.8804L138.617 24.7863H140.929L141.828 20.6553C141.91 20.2593 142.02 19.7636 142.02 19.1852C142.02 17.812 141.053 17.2336 139.749 17.2336C138.716 17.2336 138.047 17.6866 137.409 18.4929C137.245 17.5442 136.456 17.2336 135.612 17.2336C134.699 17.2336 133.804 17.7009 133.286 18.3932H133.258L133.45 17.4445H131.22L129.746 24.7863Z" fill="black"/>
<path d="M142.543 24.7863H145.033L145.537 22.2963H143.047L142.543 24.7863Z" fill="black"/>
<path d="M146.554 24.7863H148.757L148.959 23.7521H148.987C149.354 24.6581 149.981 24.9971 151.055 24.9971C153.463 24.9971 154.77 22.6353 154.77 20.3134C154.77 18.6724 153.995 17.2279 152.28 17.2279C151.463 17.2279 150.715 17.5385 150.211 18.2051H150.184L150.891 14.6809H148.578L146.554 24.7863ZM152.458 20.4587C152.458 21.5185 151.913 23.1595 150.622 23.1595C149.861 23.1595 149.466 22.5926 149.466 21.8291C149.466 20.6695 149.915 19.0712 151.302 19.0712C152.077 19.0712 152.458 19.6239 152.458 20.4587Z" fill="black"/>
<path d="M155.107 24.7863H157.419L158.099 21.4187C158.329 20.1737 158.819 19.339 160.085 19.339C160.521 19.339 160.819 19.396 161.131 19.4814L161.581 17.3589C161.351 17.245 161.118 17.2307 160.805 17.2307C159.866 17.2307 159.063 17.7834 158.589 18.6467H158.562L158.819 17.4444H156.576L155.107 24.7863Z" fill="black"/>
<path d="M5.54535 0.649573H6.49872C7.10417 0.649573 7.45757 1.09971 7.45757 1.89744C7.45757 2.35613 7.15896 3.89459 5.84396 3.89459H4.89059L5.54535 0.649573ZM3.992 4.54131H5.52617C6.61378 4.54131 7.01924 4.30484 7.53154 3.77778C8.00275 3.29345 8.22191 2.4416 8.22191 1.90028C8.22191 0.641026 7.61647 0 6.50968 0H4.90702L3.992 4.54131Z" fill="black"/>
<path d="M10.5065 4.54131H13.7064L13.8406 3.8547H11.3942L11.6572 2.52422H13.9146L14.0433 1.87749H11.7914L12.0297 0.68661H14.4597L14.594 0H11.4133L10.5065 4.54131Z" fill="black"/>
<path d="M16.478 4.54131H19.4449L19.5792 3.8547H17.3765L18.1491 0H17.3848L16.478 4.54131Z" fill="black"/>
<path d="M22.0886 4.54131H22.853L23.7652 0H23.0009L22.0886 4.54131Z" fill="black"/>
<path d="M26.8446 4.54131H27.713L30.1102 0H29.2965L27.4747 3.58689H27.461L27.0528 0H26.2747L26.8446 4.54131Z" fill="black"/>
<path d="M31.7106 4.54131H34.9077L35.0419 3.8547H32.5955L32.8585 2.52422H35.1159L35.2447 1.87749H32.9927L33.2311 0.68661H35.6611L35.7953 0H32.6147L31.7106 4.54131Z" fill="black"/>
<path d="M39.2173 0.649573H40.2885C40.6912 0.649573 41.072 0.74359 41.072 1.24217C41.072 1.76923 40.7049 2.06838 40.0556 2.06838H38.9351L39.2173 0.649573ZM37.6639 4.54131H38.442L38.8146 2.67236H39.7241C40.135 2.67236 40.5432 2.67236 40.5432 3.19943C40.5432 3.52991 40.4693 3.8547 40.4693 4.19088C40.4693 4.31909 40.4802 4.42735 40.5186 4.54131H41.3185C41.25 4.42735 41.2391 4.29345 41.2391 4.16524C41.2336 3.8547 41.3076 3.53561 41.3076 3.22507C41.3076 2.849 41.2089 2.54416 40.8418 2.40456V2.39031C41.4582 2.27635 41.8336 1.87464 41.8336 1.1567C41.8336 0.051282 40.8309 0 40.4583 0H38.568L37.6639 4.54131Z" fill="black"/>
<path d="M45.1012 4.54131H45.8656L46.208 2.80627L48.3668 0H47.4628L45.9341 2.05983L45.1807 0H44.3807L45.4574 2.74074L45.1012 4.54131Z" fill="black"/>
</svg>
