<svg width="122" height="50" viewBox="0 0 122 50" fill="none" xmlns="http://www.w3.org/2000/svg">
<path d="M31.2169 12.6969C32.5304 6.32658 22.8107 5.45092 19.6584 10.3327C18.7389 5.71362 11.5586 6.74251 8.99731 10.0919H8.97542L9.43513 7.74951H3.7653L0 25.8755H5.93253L8.12166 14.5139C8.82218 11.1427 14.5139 10.4859 13.7039 14.3607L11.3397 25.8536H17.2284L19.0892 16.2214C19.6365 13.6383 20.8405 11.7556 23.1391 11.7556C25.8317 11.7556 25.1312 14.5139 24.759 16.2214L22.7669 25.8536H28.6776L31.2169 12.6969ZM44.1766 17.5787C43.9577 19.2205 43.279 22.745 39.667 22.745C38.4848 22.745 37.2589 22.2853 37.2589 20.8624C37.2589 17.3817 42.6442 18.8265 44.1328 17.5787H44.1766ZM50.9191 12.6532C51.7072 8.90975 47.6135 7.24601 42.5785 7.24601C38.1346 7.24601 34.6539 8.64705 33.7125 13.3537H39.3386C39.5575 10.2232 45.2273 10.464 45.1398 12.8283C45.0522 15.2582 42.3377 15.0612 40.3237 15.1706C35.6828 15.5209 31.4359 16.4622 31.3483 21.3221C31.2388 27.8895 41.0242 27.4516 42.7974 24.1461H42.8412L42.4909 25.8974H48.3797L50.9191 12.6532ZM81.3917 12.6969C82.7052 6.32658 72.9855 5.45092 69.8331 10.3327C68.9356 5.71362 61.7334 6.72062 59.194 10.0919H59.1721L59.6318 7.74951H53.9839L50.2186 25.8755H56.1511L58.3402 14.5139C59.0407 11.1427 64.7325 10.4859 63.9225 14.3607L61.5582 25.8536H67.4251L69.2858 16.2214C69.8331 13.6383 71.0371 11.7556 73.3357 11.7556C76.0284 11.7556 75.3278 14.5139 74.9557 16.2214L72.9636 25.8536H78.8523L81.3917 12.6969ZM95.8181 15.1925C95.8181 17.8195 94.417 21.8694 91.1114 21.8694C89.1631 21.8694 88.1342 20.4683 88.1342 18.5857C88.1342 15.7179 89.2945 11.7775 92.8408 11.7775C94.8548 11.7775 95.8181 13.1348 95.8181 15.1925ZM101.772 14.8423C101.772 10.7924 99.7804 7.22412 95.3802 7.22412C93.2787 7.22412 91.1333 7.99031 89.8417 9.63216H89.7761L91.6368 0H86.0764L80.7569 25.8536H86.6456L87.1272 23.3142H87.1929C88.1342 25.5471 89.4696 26.379 92.2279 26.379C98.4012 26.4009 101.772 20.5778 101.772 14.8423ZM116.067 15.4771C116.067 18.2792 114.885 22.0445 111.492 22.0445C109.391 22.0445 108.603 20.3589 108.603 18.3011C108.603 15.8493 109.85 11.6024 113.068 11.6024C115.301 11.6024 116.067 13.2004 116.067 15.4771ZM122 15.2363C122 10.0262 118.41 7.24601 113.441 7.24601C106.873 7.24601 102.648 12.1059 102.648 18.52C102.648 23.8615 106.304 26.4009 111.339 26.4009C117.906 26.4009 122 21.6942 122 15.2363Z" fill="#FF000D"/>
<path d="M75.1916 34.9053C75.0822 35.0585 74.8633 35.2993 74.5349 35.6277C74.2503 35.9123 73.8125 36.3063 73.2433 36.7879C72.6742 37.2695 71.8861 37.8825 70.8791 38.6706C69.7845 39.5243 68.7994 40.0716 67.9238 40.3343C67.07 40.597 66.3257 40.6627 65.6908 40.5751H65.6252C65.5814 40.5751 65.5595 40.5751 65.5376 40.5532C65.5376 40.5532 65.5157 40.5313 65.4938 40.5313H65.4719C65.1873 40.4657 64.9028 40.3781 64.662 40.2686C64.4212 40.1592 64.1803 40.0278 63.9833 39.8746C63.5017 39.6119 63.1296 39.2178 62.8888 38.7143L62.1007 40.8597C61.5315 42.9394 61.1593 44.6907 60.9623 46.0917C60.7653 47.4927 60.7434 48.4779 60.9185 49.0032C60.4807 48.9813 60.0648 48.9157 59.6707 48.7843C59.3205 48.6749 58.9702 48.4997 58.5981 48.2589C58.2478 48.0181 57.9413 47.646 57.7005 47.1863C57.5692 46.9674 57.5692 46.5295 57.7005 45.8071C57.8319 45.1066 58.0289 44.2309 58.3354 43.2239C58.6419 42.1951 59.014 41.0786 59.4518 39.8308C59.8897 38.583 60.3494 37.3133 60.8529 36.0217C61.3345 34.7301 61.838 33.4386 62.3634 32.1689C62.8888 30.8992 63.3704 29.7389 63.8301 28.6881C64.2898 27.6155 64.7057 26.7179 65.0998 25.9298C65.4938 25.1637 65.7784 24.6383 65.9973 24.3318C66.4133 24.4194 66.8073 24.5069 67.1795 24.5726C67.4859 24.6602 67.7924 24.7696 68.0989 24.8791C68.4054 25.0104 68.6243 25.1637 68.7994 25.3388C68.6024 25.6453 68.4054 25.9955 68.1646 26.3677C67.9675 26.696 67.7486 27.0901 67.5078 27.5279C67.267 27.9657 66.9824 28.4473 66.6978 28.9727C66.7854 28.8414 66.8511 28.7538 66.9168 28.6663C67.7486 27.4185 68.471 26.4552 69.0621 25.7547C69.6532 25.0542 70.1786 24.6383 70.6164 24.485C71.0542 24.3318 71.4264 24.4412 71.7328 24.8134C72.0393 25.1855 72.302 25.8204 72.5209 26.7179C72.7179 27.4622 72.7398 28.3598 72.6304 29.4106C72.5209 30.4613 72.302 31.534 71.9517 32.6286C71.6234 33.7231 71.2074 34.7958 70.6821 35.8466C70.1786 36.8974 69.6094 37.773 69.0183 38.5392C69.6969 38.189 70.3756 37.773 71.0323 37.2914C71.689 36.8098 72.2801 36.3501 72.8055 35.8904C73.4185 35.3431 73.9876 34.8177 74.513 34.2704L75.1916 34.9053ZM70.5069 25.4482C70.2223 25.6234 69.894 25.9298 69.5218 26.3677C69.1497 26.8055 68.7775 27.3309 68.3835 27.9438C67.9894 28.5568 67.5954 29.2135 67.1795 29.936C66.7635 30.6584 66.3914 31.3808 65.9973 32.1032C65.1217 33.8107 64.2241 35.6934 63.2828 37.7511C63.4142 38.0795 63.5674 38.3203 63.7425 38.4735C63.9395 38.6268 64.1147 38.7143 64.2679 38.7581C64.4649 38.8238 64.6838 38.8238 64.9028 38.7581C65.5814 38.5392 66.1943 38.1014 66.7197 37.4009C67.2451 36.7004 67.7048 35.9123 68.1208 35.0147C68.5367 34.1172 68.9089 33.1978 69.2372 32.2126C69.5656 31.2494 69.8502 30.3957 70.1348 29.6295C70.3975 28.8852 70.5726 28.2284 70.6602 27.703C70.7258 27.1777 70.7696 26.7398 70.7477 26.4115C70.7039 26.0393 70.6164 25.7109 70.5069 25.4482Z" fill="black"/>
<path d="M78.4097 30.724C78.1032 31.3808 77.7748 32.0375 77.4465 32.738C77.1181 33.4386 76.8116 34.1172 76.5052 34.7739C76.2206 35.4307 75.9579 36.0655 75.7608 36.6566C75.5419 37.2476 75.4106 37.773 75.323 38.2108C75.2355 38.6487 75.2355 39.0208 75.3011 39.2835C75.3668 39.5462 75.5638 39.6557 75.8484 39.6338C76.0454 39.6338 76.2425 39.5462 76.4833 39.393C76.7022 39.2178 76.9649 39.0208 77.2276 38.7581C77.4903 38.5173 77.753 38.2327 78.0157 37.9044C78.2783 37.576 78.541 37.2476 78.7818 36.9193C79.351 36.1531 79.9421 35.2774 80.555 34.2923L80.971 35.365C80.1829 36.6347 79.3948 37.7292 78.6286 38.6049C78.3002 38.977 77.95 39.3492 77.5997 39.6776C77.2495 40.0278 76.8773 40.2905 76.527 40.5094C76.1549 40.7283 75.8046 40.8378 75.4544 40.8816C75.1041 40.9254 74.7976 40.8378 74.4912 40.6408C73.8782 40.2248 73.4842 39.7213 73.2652 39.1522C73.0463 38.583 72.9588 37.9919 72.9588 37.4009C72.9588 36.8098 73.0682 36.2406 73.2215 35.7152C73.3966 35.1899 73.5279 34.752 73.6593 34.4237C73.9439 33.6794 74.2941 32.8913 74.6663 32.0594C75.0603 31.2275 75.4544 30.4176 75.8922 29.5857C76.3081 28.7538 76.746 27.922 77.1838 27.112C77.6216 26.302 78.0375 25.5358 78.4754 24.7915C79.4605 23.0621 80.4675 21.3546 81.4964 19.6689C81.562 19.6908 81.6496 19.7127 81.7809 19.7346C81.8904 19.7565 82.0218 19.7784 82.1969 19.8222C82.372 19.8441 82.5909 19.9097 82.8317 19.9535C83.1601 20.063 83.4228 20.1506 83.6198 20.26C83.8168 20.3476 83.9701 20.4351 84.0795 20.5008C84.2109 20.5884 84.2984 20.6541 84.3203 20.7197C83.576 21.9237 82.8317 23.1059 82.1093 24.288C81.4745 25.3169 80.8177 26.3896 80.1391 27.5279C79.4605 28.6881 78.8913 29.7608 78.4097 30.724Z" fill="black"/>
<path d="M89.5962 39.5461C89.7932 39.5242 89.9902 39.4366 90.231 39.2834C90.45 39.1301 90.7126 38.9331 90.9753 38.6704C91.238 38.4296 91.5007 38.145 91.7634 37.8166C92.0261 37.4883 92.2888 37.1599 92.5296 36.8315C93.0988 36.0653 93.6899 35.1678 94.3028 34.1827L94.7188 35.2554C93.9307 36.5688 93.1426 37.6634 92.3764 38.5609C92.048 38.955 91.6978 39.3271 91.3475 39.6555C90.9972 39.9839 90.6251 40.2685 90.2748 40.4874C89.9027 40.7063 89.5524 40.8376 89.2021 40.8814C88.8519 40.9252 88.5454 40.8376 88.2389 40.6406C87.5822 40.1809 87.1444 39.6336 86.9474 38.9769C86.7503 38.342 86.7065 37.6853 86.7503 37.0067C86.4001 37.4883 86.006 37.9918 85.5463 38.5391C85.1085 39.0863 84.6269 39.5461 84.1453 39.962C83.6637 40.3779 83.1821 40.6406 82.7004 40.8157C82.2188 40.969 81.781 40.9252 81.387 40.6406C80.774 40.2247 80.38 39.7212 80.1611 39.1301C79.9421 38.5391 79.8546 37.948 79.8546 37.3569C79.8546 36.7659 79.964 36.1967 80.1173 35.6494C80.2924 35.1021 80.4238 34.6643 80.5551 34.3359C81.1681 32.8254 81.7372 31.4682 82.3283 30.2642C82.8975 29.082 83.4229 28.0531 83.8826 27.1994C84.4299 26.2143 84.9334 25.3605 85.415 24.6162C85.5025 24.6162 85.612 24.6162 85.7214 24.6381C85.8309 24.66 85.9622 24.6819 86.1374 24.7257C86.3125 24.7694 86.5095 24.8132 86.7722 24.8789C87.1006 24.9884 87.3633 25.0759 87.5603 25.1635C87.7573 25.2511 87.9106 25.3167 88.02 25.3824C88.1514 25.47 88.217 25.5356 88.2608 25.6013C88.0638 25.8421 87.823 26.1924 87.5384 26.6302C87.2976 27.0024 86.9692 27.5059 86.5971 28.1626C86.2249 28.8193 85.7871 29.6074 85.3055 30.5706C84.8239 31.5339 84.3423 32.5408 83.8607 33.5916C83.3791 34.6643 82.9631 35.6275 82.6567 36.5032C82.3502 37.3788 82.1751 38.1231 82.1313 38.6923C82.1094 39.2615 82.3064 39.5461 82.7442 39.5242C82.985 39.5023 83.2696 39.3709 83.598 39.1082C83.9264 38.8455 84.2547 38.5172 84.5831 38.145C84.9115 37.751 85.2398 37.335 85.5901 36.8972C85.9185 36.4594 86.2249 36.0435 86.4876 35.6494C86.7503 35.2554 86.9692 34.927 87.1444 34.6643C87.3195 34.4016 87.4071 34.2484 87.429 34.2046C88.0419 32.6941 88.6111 31.3587 89.1803 30.1985C89.7494 29.0164 90.2529 28.0094 90.7127 27.1775C91.2599 26.1924 91.7634 25.3386 92.2231 24.6162C92.2888 24.6162 92.3764 24.6162 92.5077 24.6381C92.6172 24.66 92.7485 24.6819 92.9237 24.7257C93.0988 24.7694 93.3177 24.8132 93.5585 24.8789C93.8869 24.9884 94.1496 25.0759 94.3466 25.1635C94.5436 25.2511 94.6969 25.3167 94.8063 25.3824C94.9377 25.47 95.0033 25.5356 95.0471 25.6013C94.8282 25.8421 94.5874 26.1924 94.3028 26.6302C94.062 27.0024 93.7555 27.5059 93.3834 28.1626C93.0112 28.8193 92.5953 29.6074 92.1137 30.5706C91.6321 31.5339 91.1505 32.5408 90.6689 33.5916C90.1873 34.6643 89.7713 35.6275 89.4648 36.5032C89.1584 37.3788 88.9832 38.1231 88.9395 38.6923C88.9395 39.2834 89.1584 39.5679 89.5962 39.5461Z" fill="black"/>
<path d="M100.607 38.1671C101.198 37.8168 101.768 37.4228 102.315 36.9631C102.862 36.5252 103.366 36.0874 103.825 35.6934C104.351 35.2337 104.854 34.7739 105.336 34.3142L105.708 35.0366C105.577 35.2118 105.336 35.4745 104.986 35.8247C104.679 36.1093 104.219 36.5252 103.65 37.0287C103.059 37.5322 102.271 38.189 101.286 38.9552C100.126 39.8527 99.0969 40.4219 98.1994 40.6627C97.3019 40.9035 96.5357 40.9692 95.9008 40.8597C95.266 40.7503 94.7406 40.5313 94.3465 40.203C93.9525 39.8746 93.6679 39.6119 93.4928 39.3711C93.3176 39.1741 93.1206 38.9333 92.8798 38.583C92.639 38.2546 92.4639 37.992 92.3544 37.7949L92.442 37.7074C92.4858 37.6636 92.5077 37.6198 92.5296 37.5979C92.5514 37.576 92.5733 37.5322 92.6171 37.4885C92.8798 37.9482 93.252 38.3203 93.6898 38.6049C94.1276 38.8895 94.5873 39.0646 95.0908 39.1303C95.5724 39.1741 96.0759 39.1084 96.5575 38.8895C97.0392 38.6706 97.477 38.2984 97.8272 37.7949C98.1775 37.2914 98.4402 36.6128 98.6153 35.759C98.7905 34.9053 98.8124 33.8545 98.681 32.6067C98.5059 31.0962 98.6153 29.8703 99.0094 28.8852C99.4034 27.9001 99.885 27.112 100.476 26.5209C101.067 25.9299 101.702 25.492 102.359 25.2293C103.015 24.9666 103.563 24.7915 103.979 24.7258C104.395 24.6602 104.745 24.704 105.051 24.8572C105.336 25.0104 105.577 25.2074 105.774 25.4264C105.993 25.6672 106.19 25.9955 106.343 26.3677C104.832 26.9369 103.738 27.506 103.015 28.119C102.293 28.7319 101.811 29.3449 101.571 30.0016C101.33 30.6584 101.242 31.3151 101.33 31.9937C101.396 32.6724 101.483 33.351 101.571 34.0296C101.658 34.7083 101.658 35.4088 101.571 36.1093C101.461 36.7879 101.155 37.4885 100.607 38.1671Z" fill="black"/>
</svg>
