<svg width="24" height="24" viewBox="0 0 24 24" fill="none" xmlns="http://www.w3.org/2000/svg">
<circle cx="12" cy="12" r="11.5" fill="white" stroke="#47AE54"/>
<mask id="path-2-inside-1" fill="white">
<path d="M12.82 7.35795L14.2541 5.79842C14.2887 5.76175 14.3163 5.71791 14.3353 5.66946C14.3543 5.621 14.3644 5.56889 14.3648 5.51616C14.3653 5.46342 14.3562 5.4111 14.3381 5.36224C14.32 5.31337 14.2932 5.26894 14.2593 5.23151C14.2254 5.19408 14.185 5.1644 14.1405 5.14419C14.0961 5.12399 14.0484 5.11366 14.0002 5.1138C13.9521 5.11394 13.9045 5.12455 13.8601 5.14502C13.8157 5.16549 13.7755 5.19541 13.7418 5.23304L12.3636 6.73186V4.4047C12.3636 4.29905 12.3253 4.19772 12.2571 4.12302C12.1889 4.04831 12.0964 4.00634 12 4.00634C11.9035 4.00634 11.811 4.04831 11.7428 4.12302C11.6746 4.19772 11.6363 4.29905 11.6363 4.4047V5.14038L10.6973 4.11924C10.6636 4.08161 10.6234 4.0517 10.579 4.03123C10.5346 4.01076 10.487 4.00014 10.4388 4C10.3907 3.99986 10.343 4.01019 10.2985 4.0304C10.2541 4.0506 10.2137 4.08028 10.1798 4.11771C10.1459 4.15514 10.1191 4.19958 10.101 4.24844C10.0828 4.2973 10.0738 4.34962 10.0742 4.40236C10.0747 4.4551 10.0848 4.5072 10.1038 4.55566C10.1228 4.60411 10.1504 4.64795 10.185 4.68462L11.6364 6.26281V7.304C9.60055 7.45114 8 8.8196 8 10.4813C8.00513 10.7212 8.02273 10.9606 8.05272 11.1984L8.05335 11.2035C8.27487 12.9085 8.61853 14.5916 9.08114 16.2375C9.9709 19.3976 10.9529 21 12 21C13.047 21 14.029 19.3976 14.9189 16.2375C15.5887 13.8581 16 11.2813 16 10.4813C16 8.946 14.6337 7.66068 12.82 7.35795ZM12 20.2033C11.5615 20.2033 10.8614 19.3655 10.1117 17.1028H11.5353C11.6318 17.1028 11.7242 17.0609 11.7924 16.9862C11.8606 16.9114 11.8989 16.8101 11.8989 16.7045C11.8989 16.5988 11.8606 16.4975 11.7924 16.4228C11.7242 16.3481 11.6318 16.3061 11.5353 16.3061H9.86358C9.83438 16.207 9.8054 16.1061 9.77613 16.0025C9.36678 14.5341 9.04949 13.0369 8.82648 11.5211H11.4046C11.5011 11.5211 11.5936 11.4791 11.6618 11.4044C11.73 11.3297 11.7683 11.2284 11.7683 11.1228C11.7683 11.0171 11.73 10.9158 11.6618 10.8411C11.5936 10.7664 11.5011 10.7244 11.4046 10.7244H8.7373C8.73067 10.6298 8.7272 10.548 8.7272 10.4813C8.7272 9.16109 10.1953 8.08697 12 8.08697C13.8046 8.08697 15.2727 9.16109 15.2727 10.4813C15.2727 11.0039 15.0645 12.4344 14.7126 14.0375H12.8427C12.7462 14.0375 12.6537 14.0794 12.5855 14.1541C12.5173 14.2288 12.479 14.3302 12.479 14.4358C12.479 14.5415 12.5173 14.6428 12.5855 14.7175C12.6537 14.7922 12.7462 14.8342 12.8427 14.8342H14.5287C14.4342 15.224 14.3324 15.6167 14.2238 16.0025C13.3518 19.0998 12.5033 20.2033 12 20.2033Z"/>
</mask>
<path d="M12.82 7.35795L14.2541 5.79842C14.2887 5.76175 14.3163 5.71791 14.3353 5.66946C14.3543 5.621 14.3644 5.56889 14.3648 5.51616C14.3653 5.46342 14.3562 5.4111 14.3381 5.36224C14.32 5.31337 14.2932 5.26894 14.2593 5.23151C14.2254 5.19408 14.185 5.1644 14.1405 5.14419C14.0961 5.12399 14.0484 5.11366 14.0002 5.1138C13.9521 5.11394 13.9045 5.12455 13.8601 5.14502C13.8157 5.16549 13.7755 5.19541 13.7418 5.23304L12.3636 6.73186V4.4047C12.3636 4.29905 12.3253 4.19772 12.2571 4.12302C12.1889 4.04831 12.0964 4.00634 12 4.00634C11.9035 4.00634 11.811 4.04831 11.7428 4.12302C11.6746 4.19772 11.6363 4.29905 11.6363 4.4047V5.14038L10.6973 4.11924C10.6636 4.08161 10.6234 4.0517 10.579 4.03123C10.5346 4.01076 10.487 4.00014 10.4388 4C10.3907 3.99986 10.343 4.01019 10.2985 4.0304C10.2541 4.0506 10.2137 4.08028 10.1798 4.11771C10.1459 4.15514 10.1191 4.19958 10.101 4.24844C10.0828 4.2973 10.0738 4.34962 10.0742 4.40236C10.0747 4.4551 10.0848 4.5072 10.1038 4.55566C10.1228 4.60411 10.1504 4.64795 10.185 4.68462L11.6364 6.26281V7.304C9.60055 7.45114 8 8.8196 8 10.4813C8.00513 10.7212 8.02273 10.9606 8.05272 11.1984L8.05335 11.2035C8.27487 12.9085 8.61853 14.5916 9.08114 16.2375C9.9709 19.3976 10.9529 21 12 21C13.047 21 14.029 19.3976 14.9189 16.2375C15.5887 13.8581 16 11.2813 16 10.4813C16 8.946 14.6337 7.66068 12.82 7.35795ZM12 20.2033C11.5615 20.2033 10.8614 19.3655 10.1117 17.1028H11.5353C11.6318 17.1028 11.7242 17.0609 11.7924 16.9862C11.8606 16.9114 11.8989 16.8101 11.8989 16.7045C11.8989 16.5988 11.8606 16.4975 11.7924 16.4228C11.7242 16.3481 11.6318 16.3061 11.5353 16.3061H9.86358C9.83438 16.207 9.8054 16.1061 9.77613 16.0025C9.36678 14.5341 9.04949 13.0369 8.82648 11.5211H11.4046C11.5011 11.5211 11.5936 11.4791 11.6618 11.4044C11.73 11.3297 11.7683 11.2284 11.7683 11.1228C11.7683 11.0171 11.73 10.9158 11.6618 10.8411C11.5936 10.7664 11.5011 10.7244 11.4046 10.7244H8.7373C8.73067 10.6298 8.7272 10.548 8.7272 10.4813C8.7272 9.16109 10.1953 8.08697 12 8.08697C13.8046 8.08697 15.2727 9.16109 15.2727 10.4813C15.2727 11.0039 15.0645 12.4344 14.7126 14.0375H12.8427C12.7462 14.0375 12.6537 14.0794 12.5855 14.1541C12.5173 14.2288 12.479 14.3302 12.479 14.4358C12.479 14.5415 12.5173 14.6428 12.5855 14.7175C12.6537 14.7922 12.7462 14.8342 12.8427 14.8342H14.5287C14.4342 15.224 14.3324 15.6167 14.2238 16.0025C13.3518 19.0998 12.5033 20.2033 12 20.2033Z" fill="#47AE54"/>
<path d="M12.82 7.35795L12.0839 6.68107L10.8341 8.04029L12.6554 8.3443L12.82 7.35795ZM14.2541 5.79842L13.5266 5.11215L13.518 5.12155L14.2541 5.79842ZM13.7418 5.23304L14.4779 5.90995L14.4864 5.90053L13.7418 5.23304ZM12.3636 6.73186H11.3636V9.29682L13.0997 7.40872L12.3636 6.73186ZM12 4.00634V3.00634V4.00634ZM11.6363 5.14038L10.9002 5.81726L12.6363 7.7052V5.14038H11.6363ZM10.6973 4.11924L9.95264 4.78679L9.96123 4.79613L10.6973 4.11924ZM10.185 4.68462L10.9211 4.00765L10.9124 3.99841L10.185 4.68462ZM11.6364 6.26281H12.6364V5.87289L12.3725 5.58589L11.6364 6.26281ZM11.6364 7.304L11.7085 8.3014L12.6364 8.23433V7.304H11.6364ZM8 10.4813H7V10.492L7.00023 10.5027L8 10.4813ZM8.05272 11.1984L9.04543 11.0777L9.04486 11.0732L8.05272 11.1984ZM8.05335 11.2035L7.06062 11.3242L7.06169 11.3324L8.05335 11.2035ZM9.08114 16.2375L8.11845 16.5081L8.11857 16.5085L9.08114 16.2375ZM14.9189 16.2375L15.8814 16.5085L15.8814 16.5084L14.9189 16.2375ZM10.1117 17.1028V16.1028H8.72689L9.16243 17.4173L10.1117 17.1028ZM9.86358 16.3061L8.90433 16.5887L9.11566 17.3061H9.86358V16.3061ZM9.77613 16.0025L8.81286 16.271L8.81383 16.2745L9.77613 16.0025ZM8.82648 11.5211V10.5211H7.66859L7.83713 11.6667L8.82648 11.5211ZM8.7373 10.7244L7.73974 10.7942L7.80486 11.7244H8.7373V10.7244ZM14.7126 14.0375V15.0375H15.5168L15.6893 14.2519L14.7126 14.0375ZM12.8427 14.8342V15.8342V14.8342ZM14.5287 14.8342L15.5005 15.0699L15.8003 13.8342H14.5287V14.8342ZM14.2238 16.0025L15.1864 16.2735L15.1864 16.2734L14.2238 16.0025ZM13.5561 8.03482L14.9902 6.47529L13.518 5.12155L12.0839 6.68107L13.5561 8.03482ZM14.9815 6.48463C15.1067 6.35194 15.202 6.19825 15.2662 6.03471L13.4044 5.3042C13.4305 5.23757 13.4707 5.17155 13.5267 5.11221L14.9815 6.48463ZM15.2662 6.03471C15.3304 5.87124 15.3632 5.69833 15.3648 5.52534L13.3649 5.50698C13.3655 5.43946 13.3783 5.37076 13.4044 5.3042L15.2662 6.03471ZM15.3648 5.52534C15.3664 5.35235 15.3367 5.179 15.2757 5.01457L13.4005 5.7099C13.3758 5.6432 13.3643 5.57449 13.3649 5.50698L15.3648 5.52534ZM15.2757 5.01457C15.2148 4.85009 15.1225 4.69488 15.0003 4.56002L13.5183 5.903C13.4639 5.84299 13.4253 5.77666 13.4005 5.7099L15.2757 5.01457ZM15.0003 4.56002C14.8779 4.42497 14.7272 4.31238 14.5542 4.23377L13.7269 6.05462C13.6428 6.01642 13.5728 5.96319 13.5183 5.903L15.0003 4.56002ZM14.5542 4.23377C14.3809 4.15501 14.1913 4.11323 13.9973 4.1138L14.0032 6.11379C13.9055 6.11408 13.8113 6.09296 13.7269 6.05462L14.5542 4.23377ZM13.9973 4.1138C13.8033 4.11438 13.614 4.15728 13.4412 4.23699L14.279 6.05305C14.1949 6.09183 14.1009 6.1135 14.0032 6.11379L13.9973 4.1138ZM13.4412 4.23699C13.2687 4.31656 13.1187 4.42992 12.9971 4.56555L14.4864 5.90053C14.4323 5.9609 14.3627 6.01443 14.279 6.05305L13.4412 4.23699ZM13.0056 4.55618L11.6275 6.055L13.0997 7.40872L14.4779 5.9099L13.0056 4.55618ZM13.3636 6.73186V4.4047H11.3636V6.73186H13.3636ZM13.3636 4.4047C13.3636 4.06176 13.2401 3.71659 12.9956 3.44882L11.5185 4.79721C11.4105 4.67885 11.3636 4.53633 11.3636 4.4047H13.3636ZM12.9956 3.44882C12.7484 3.17801 12.3926 3.00634 12 3.00634V5.00634C11.8002 5.00634 11.6294 4.91861 11.5185 4.79721L12.9956 3.44882ZM12 3.00634C11.6074 3.00634 11.2515 3.17801 11.0043 3.44882L12.4814 4.79721C12.3706 4.91861 12.1997 5.00634 12 5.00634V3.00634ZM11.0043 3.44882C10.7598 3.71659 10.6363 4.06176 10.6363 4.4047H12.6363C12.6363 4.53633 12.5894 4.67885 12.4814 4.79721L11.0043 3.44882ZM10.6363 4.4047V5.14038H12.6363V4.4047H10.6363ZM12.3724 4.46349L11.4334 3.44236L9.96123 4.79613L10.9002 5.81726L12.3724 4.46349ZM11.4419 3.45175C11.3204 3.31613 11.1704 3.20276 10.9979 3.1232L10.1601 4.93926C10.0764 4.90063 10.0068 4.8471 9.9527 4.78674L11.4419 3.45175ZM10.9979 3.1232C10.8251 3.04348 10.6358 3.00058 10.4418 3.00001L10.4359 5C10.3382 4.99971 10.2441 4.97803 10.1601 4.93926L10.9979 3.1232ZM10.4418 3.00001C10.2478 2.99943 10.0582 3.04121 9.88486 3.11997L10.7122 4.94082C10.6278 4.97917 10.5336 5.00029 10.4359 5L10.4418 3.00001ZM9.88486 3.11997C9.71185 3.19859 9.56115 3.31117 9.43877 3.44623L10.9208 4.7892C10.8663 4.84939 10.7963 4.90262 10.7122 4.94082L9.88486 3.11997ZM9.43877 3.44623C9.31656 3.58109 9.22432 3.7363 9.16334 3.90078L11.0386 4.59611C11.0138 4.66286 10.9752 4.72919 10.9208 4.7892L9.43877 3.44623ZM9.16334 3.90078C9.10237 4.06519 9.0727 4.23854 9.07428 4.41154L11.0742 4.39318C11.0748 4.4607 11.0633 4.52942 11.0386 4.59611L9.16334 3.90078ZM9.07428 4.41154C9.07587 4.58454 9.10873 4.75745 9.17287 4.92091L11.0347 4.1904C11.0608 4.25696 11.0736 4.32566 11.0742 4.39318L9.07428 4.41154ZM9.17287 4.92091C9.23704 5.08445 9.33241 5.23815 9.45759 5.37083L10.9124 3.99841C10.9684 4.05775 11.0085 4.12377 11.0347 4.1904L9.17287 4.92091ZM9.44894 5.36155L10.9003 6.93974L12.3725 5.58589L10.921 4.0077L9.44894 5.36155ZM10.6364 6.26281V7.304H12.6364V6.26281H10.6364ZM11.5643 6.3066C9.20987 6.47677 7 8.11262 7 10.4813H9C9 9.52659 9.99123 8.42552 11.7085 8.3014L11.5643 6.3066ZM7.00023 10.5027C7.0061 10.7773 7.02625 11.0513 7.06058 11.3235L9.04486 11.0732C9.01922 10.87 9.00416 10.6652 8.99977 10.4599L7.00023 10.5027ZM7.06002 11.319L7.06065 11.3242L9.04605 11.0829L9.04542 11.0777L7.06002 11.319ZM7.06169 11.3324C7.28939 13.0849 7.6427 14.8155 8.11845 16.5081L10.0438 15.9669C9.59436 14.3678 9.26035 12.732 9.04501 11.0747L7.06169 11.3324ZM8.11857 16.5085C8.57266 18.1213 9.07031 19.4148 9.62895 20.3263C10.1559 21.1861 10.9231 22 12 22V20C11.9998 20 11.9923 20.0005 11.9722 19.9927C11.9501 19.9841 11.9078 19.9633 11.8464 19.9149C11.7175 19.8133 11.5415 19.6195 11.3342 19.2812C10.9176 18.6015 10.4794 17.5138 10.0437 15.9664L8.11857 16.5085ZM12 22C13.0769 22 13.844 21.1861 14.371 20.3263C14.9296 19.4148 15.4273 18.1213 15.8814 16.5085L13.9563 15.9664C13.5206 17.5138 13.0823 18.6015 12.6657 19.2812C12.4584 19.6195 12.2824 19.8133 12.1536 19.9149C12.0922 19.9633 12.0499 19.9841 12.0277 19.9927C12.0076 20.0005 12.0001 20 12 20V22ZM15.8814 16.5084C16.2265 15.2826 16.5037 14.0114 16.695 12.9434C16.8817 11.9007 17 10.9789 17 10.4813H15C15 10.7837 14.9126 11.5503 14.7263 12.5908C14.5445 13.606 14.281 14.8129 13.9563 15.9665L15.8814 16.5084ZM17 10.4813C17 8.2961 15.1019 6.725 12.9847 6.37159L12.6554 8.3443C14.1655 8.59636 15 9.5959 15 10.4813H17ZM12 19.2033C12.2091 19.2033 12.3016 19.2983 12.2591 19.2635C12.2248 19.2354 12.137 19.1483 12.0082 18.9523C11.7517 18.5621 11.422 17.8781 11.0609 16.7883L9.16243 17.4173C9.55104 18.5902 9.94624 19.4565 10.3369 20.0508C10.5316 20.3472 10.7479 20.6109 10.9916 20.8106C11.2271 21.0035 11.5716 21.2033 12 21.2033V19.2033ZM10.1117 18.1028H11.5353V16.1028H10.1117V18.1028ZM11.5353 18.1028C11.9279 18.1028 12.2838 17.9312 12.531 17.6603L11.0539 16.312C11.1647 16.1906 11.3356 16.1028 11.5353 16.1028V18.1028ZM12.531 17.6603C12.7754 17.3926 12.8989 17.0474 12.8989 16.7045H10.8989C10.8989 16.5728 10.9458 16.4303 11.0539 16.312L12.531 17.6603ZM12.8989 16.7045C12.8989 16.3615 12.7754 16.0164 12.531 15.7486L11.0539 17.097C10.9458 16.9786 10.8989 16.8361 10.8989 16.7045H12.8989ZM12.531 15.7486C12.2838 15.4778 11.9279 15.3061 11.5353 15.3061V17.3061C11.3356 17.3061 11.1647 17.2184 11.0539 17.097L12.531 15.7486ZM11.5353 15.3061H9.86358V17.3061H11.5353V15.3061ZM10.8228 16.0236C10.7949 15.9288 10.767 15.8315 10.7384 15.7305L8.81383 16.2745C8.84382 16.3806 8.87384 16.4852 8.90433 16.5887L10.8228 16.0236ZM10.7394 15.734C10.3414 14.3062 10.0328 12.85 9.81583 11.3756L7.83713 11.6667C8.06621 13.2237 8.39219 14.7621 8.81286 16.271L10.7394 15.734ZM8.82648 12.5211H11.4046V10.5211H8.82648V12.5211ZM11.4046 12.5211C11.7972 12.5211 12.1531 12.3494 12.4003 12.0786L10.9232 10.7302C11.034 10.6088 11.2049 10.5211 11.4046 10.5211V12.5211ZM12.4003 12.0786C12.6447 11.8109 12.7683 11.4657 12.7683 11.1228H10.7683C10.7683 10.9911 10.8152 10.8486 10.9232 10.7302L12.4003 12.0786ZM12.7683 11.1228C12.7683 10.7798 12.6447 10.4347 12.4003 10.1669L10.9232 11.5153C10.8152 11.3969 10.7683 11.2544 10.7683 11.1228H12.7683ZM12.4003 10.1669C12.1531 9.89608 11.7972 9.72441 11.4046 9.72441V11.7244C11.2049 11.7244 11.034 11.6367 10.9232 11.5153L12.4003 10.1669ZM11.4046 9.72441H8.7373V11.7244H11.4046V9.72441ZM9.73486 10.6546C9.72916 10.5732 9.7272 10.5165 9.7272 10.4813H7.7272C7.7272 10.5795 7.73219 10.6863 7.73974 10.7942L9.73486 10.6546ZM9.7272 10.4813C9.7272 10.2183 9.87171 9.89286 10.2773 9.59613C10.6817 9.30025 11.2881 9.08697 12 9.08697V7.08697C10.9072 7.08697 9.87719 7.41075 9.09639 7.98199C8.31676 8.55238 7.7272 9.42408 7.7272 10.4813H9.7272ZM12 9.08697C12.7118 9.08697 13.3182 9.30025 13.7226 9.59613C14.1282 9.89286 14.2727 10.2183 14.2727 10.4813H16.2727C16.2727 9.42408 15.6832 8.55237 14.9035 7.98199C14.1227 7.41075 13.0927 7.08697 12 7.08697V9.08697ZM14.2727 10.4813C14.2727 10.8841 14.0879 12.2196 13.7359 13.823L15.6893 14.2519C16.0412 12.6493 16.2727 11.1237 16.2727 10.4813H14.2727ZM14.7126 13.0375H12.8427V15.0375H14.7126V13.0375ZM12.8427 13.0375C12.4501 13.0375 12.0942 13.2091 11.847 13.4799L13.3241 14.8283C13.2133 14.9497 13.0424 15.0375 12.8427 15.0375V13.0375ZM11.847 13.4799C11.6025 13.7477 11.479 14.0929 11.479 14.4358H13.479C13.479 14.5674 13.4321 14.71 13.3241 14.8283L11.847 13.4799ZM11.479 14.4358C11.479 14.7787 11.6025 15.1239 11.847 15.3917L13.3241 14.0433C13.4321 14.1616 13.479 14.3042 13.479 14.4358H11.479ZM11.847 15.3917C12.0942 15.6625 12.4501 15.8342 12.8427 15.8342V13.8342C13.0424 13.8342 13.2133 13.9219 13.3241 14.0433L11.847 15.3917ZM12.8427 15.8342H14.5287V13.8342H12.8427V15.8342ZM13.5569 14.5984C13.4648 14.9782 13.366 15.359 13.2612 15.7316L15.1864 16.2734C15.2987 15.8744 15.4035 15.4698 15.5005 15.0699L13.5569 14.5984ZM13.2612 15.7315C12.8365 17.2401 12.4336 18.2016 12.1083 18.7632C11.9446 19.0458 11.8223 19.1889 11.7576 19.2488C11.6775 19.323 11.7636 19.2033 12 19.2033V21.2033C12.488 21.2033 12.8688 20.9457 13.1167 20.7161C13.3799 20.4723 13.6186 20.146 13.8389 19.7656C14.2817 19.0011 14.7391 17.8622 15.1864 16.2735L13.2612 15.7315Z" fill="#47AE54" mask="url(#path-2-inside-1)"/>
</svg>
