<svg width="14" height="16" viewBox="0 0 14 16" fill="none" xmlns="http://www.w3.org/2000/svg">
<path d="M13.8667 15.4146C13.8667 15.7379 13.6006 16 13.2724 16C12.9442 16 12.6781 15.7379 12.6781 15.4146C12.6781 12.2895 10.1061 9.7561 6.93333 9.7561C3.76059 9.7561 1.18857 12.2895 1.18857 15.4146C1.18857 15.7379 0.922501 16 0.594286 16C0.266071 16 0 15.7379 0 15.4146C0 11.6429 3.10416 8.58537 6.93333 8.58537C10.7625 8.58537 13.8667 11.6429 13.8667 15.4146ZM6.93333 8.19512C4.63583 8.19512 2.77333 6.36058 2.77333 4.09756C2.77333 1.83454 4.63583 0 6.93333 0C9.23084 0 11.0933 1.83454 11.0933 4.09756C11.0933 6.36058 9.23084 8.19512 6.93333 8.19512ZM6.93333 7.02439C8.57441 7.02439 9.90476 5.714 9.90476 4.09756C9.90476 2.48112 8.57441 1.17073 6.93333 1.17073C5.29226 1.17073 3.96191 2.48112 3.96191 4.09756C3.96191 5.714 5.29226 7.02439 6.93333 7.02439Z" fill="#F44237"/>
</svg>
